<svg width="12px" height="7px" viewBox="0 0 12 7">
    <g id="Page-1" stroke="none" stroke-width="1" fill="none" fill-rule="evenodd">
        <g id="colearn-mockups-discover-04" transform="translate(-461.000000, -229.000000)" fill="#000000" fill-rule="nonzero">
            <g id="Group-10" transform="translate(313.000000, 212.000000)">
                <path d="M152.045632,25.2857143 C151.774446,25.2857143 151.51369,25.1774721 151.305085,24.9718119 C150.898305,24.5496674 150.898305,23.8569174 151.305085,23.4347728 L154.46545,20.1442102 L151.305085,16.8536475 C150.898305,16.431503 150.898305,15.738753 151.305085,15.3166084 C151.711864,14.8944639 152.3794,14.8944639 152.78618,15.3166084 L156.697523,19.3756906 C156.895698,19.5813508 157,19.8519563 157,20.1442102 C157,20.4364641 156.885267,20.7070696 156.697523,20.9127297 L152.78618,24.9718119 C152.577575,25.1774721 152.306389,25.2857143 152.045632,25.2857143 Z" id="Path" transform="translate(154.000000, 20.142857) rotate(90.000000) translate(-154.000000, -20.142857) "></path>
            </g>
        </g>
    </g>
</svg>
