
<svg width="32px" height="32px" viewBox="0 0 32 32">
    <g id="Page-1" stroke="none" stroke-width="1" fill="none" fill-rule="evenodd">
        <g id="colearn-mockups-discover-01" transform="translate(-859.000000, -104.000000)" stroke="#3699AE" stroke-width="2">
            <g id="Group-10" transform="translate(851.000000, 100.000000)">
                <g id="Group-13" transform="translate(9.000000, 5.000000)">
                    <g id="person-outline" opacity="0.8" transform="translate(9.000000, 7.000000)" stroke-linecap="round" stroke-linejoin="round">
                        <path d="M9.47888258,3.25 C9.34617938,5.03986979 7.98935682,6.5 6.49983106,6.5 C5.01030529,6.5 3.65111303,5.04020833 3.52077953,3.25 C3.3853681,1.38802083 4.70562957,0 6.49983106,0 C8.29403254,0 9.61429401,1.421875 9.47888258,3.25 Z" id="Path"></path>
                        <path d="M6.49983106,8.66666667 C3.55463239,8.66666667 0.565425003,10.2916667 0.0122692987,13.3588542 C-0.0544208321,13.7285417 0.154789832,14.0833333 0.541728002,14.0833333 L12.4579341,14.0833333 C12.8452108,14.0833333 13.0544215,13.7285417 12.9877313,13.3588542 C12.4342371,10.2916667 9.44502972,8.66666667 6.49983106,8.66666667 Z" id="Path"></path>
                    </g>
                    <path d="M15,0 C6.71657609,0 0,6.71657609 0,15 C0,23.2834239 6.71657609,30 15,30 C23.2834239,30 30,23.2834239 30,15 C30,6.71657609 23.2834239,0 15,0 Z" id="Path"></path>
                </g>
            </g>
        </g>
    </g>
</svg>
