<svg width="13" height="22" viewBox="0 0 13 22" fill="none">
  <path
    d="M11.5172 9.81665L3.18388 1.48332C3.02848 1.32792 2.844 1.20465 2.64097 1.12055C2.43793 1.03645 2.22031 0.993164 2.00055 0.993164C1.55671 0.993164 1.13106 1.16948 0.817216 1.48332C0.661818 1.63871 0.53855 1.8232 0.454449 2.02623C0.370349 2.22927 0.327064 2.44688 0.327064 2.66665C0.327064 3.11049 0.503376 3.53614 0.817216 3.84998L7.98388 11L0.817216 18.15C0.661002 18.3049 0.537012 18.4893 0.452397 18.6924C0.367783 18.8955 0.324219 19.1133 0.324219 19.3333C0.324219 19.5533 0.367783 19.7712 0.452397 19.9743C0.537012 20.1774 0.661002 20.3617 0.817216 20.5166C0.972154 20.6729 1.15649 20.7969 1.35959 20.8815C1.56269 20.9661 1.78053 21.0096 2.00055 21.0096C2.22057 21.0096 2.43841 20.9661 2.64151 20.8815C2.84461 20.7969 3.02894 20.6729 3.18388 20.5166L11.5172 12.1833C11.6734 12.0284 11.7974 11.844 11.882 11.6409C11.9667 11.4378 12.0102 11.22 12.0102 11C12.0102 10.78 11.9667 10.5621 11.882 10.359C11.7974 10.1559 11.6734 9.97159 11.5172 9.81665Z"
    fill="#7E8B8E" />
</svg>
